<svg xmlns="http://www.w3.org/2000/svg"><symbol id="brachiosaurus" viewBox="0 0 256 256"><path d="M58.3 167a31 31 0 0 0-7.6.9c0 .3.2.6.8 1a10.9 10.9 0 0 0 1.9 1 16.9 16.9 0 0 0 2.7 1l2.7.8 2.4.6a5 5 0 0 0 1.5.2h2.1a10.9 10.9 0 0 0 2.5-.4l2.3-.8a4.2 4.2 0 0 0 1.7-1.5 27.7 27.7 0 0 0-6.3-2.2 37.1 37.1 0 0 0-6.7-.6z"/><path d="M126.7 2.3a126 126 0 1 0 126 126 126 126 0 0 0-126-126zm82.1 69.6v.3a3.7 3.7 0 0 1-.1 1.4 16.2 16.2 0 0 1-.3 2q-.2 1.2-.3 2.1a4.9 4.9 0 0 1-.3 1.3l-.9 1.9-.6 1.9-.6 2a10.7 10.7 0 0 1-.7 1.9c-.5 1.1-1.1 2.1-1.6 3a18.2 18.2 0 0 0-1.6 3.1L182 120.2l-.2.6-.3.3-.3.2-.4.5-1.7 2.3-2 2.8-2.2 3.2a27.9 27.9 0 0 0-1.9 3.3 15.3 15.3 0 0 0-1.4 2.9 5.6 5.6 0 0 0-.5 2.3c0 .3-.3.5-.2.7s.1.5.1.7c-.1 0-.2.1-.2.3s.1.4.2.4v10.1a2 2 0 0 1-.2 1c-.2.4-.2.7-.4 1.1a4.5 4.5 0 0 1-.6 1.2c-.1.5-.4.8-.4 1.2v1.7c0 .1.1.2 0 .4s-.2.5-.4.8l-.7.8a1.1 1.1 0 0 1-.5.4v.4c0 .1.6.2.7.4s.9.4.9.4v2.8a19.7 19.7 0 0 1-.6 3.5c-.2 1.2-.6 2.4-.8 3.5s-.5 2.3-.6 3.5a19.7 19.7 0 0 0-.4 3.5c0 2.1.1 4.1.3 6.2a41 41 0 0 0 1.1 6.1 27.8 27.8 0 0 0 2.1 5.7 22.2 22.2 0 0 0 3.4 5.2l-1.2.8-1.7.7-1.7.4a3.6 3.6 0 0 1-1.4.1h-.5l-1-.2-1.2-.3-1-.2h-.7l-.8-.3-.6-.5-.3-.7a26.4 26.4 0 0 0 .1-4 32.2 32.2 0 0 0-.3-4.3c-.1-1.4-.3-2.8-.5-4.2s-.3-2.7-.5-4a3.1 3.1 0 0 1-.2-.7l-.2-.6c0-1.1.1-2.3.1-3.6s0-2.6-.1-4a26.3 26.3 0 0 0-.6-3.9 11.6 11.6 0 0 0-1.4-3.4 3.8 3.8 0 0 0-1.5 1.8 17.6 17.6 0 0 0-.7 2.7c-.3.9-.2 1.9-.5 2.9s-.9 1.7-.9 2.3v7.5c0 2.8-.2 5.5-.1 8.2a75.4 75.4 0 0 0 .6 8.1c0 .1.1.2.4.3l.8.6.8.7a1.3 1.3 0 0 1 .3.7c0 .2-.3.4-.8.7l-1.8.9-2 .8-1.3.4h-.2l-4.7-2.5a.4.4 0 0 1-.2-.5v-.6a29.9 29.9 0 0 1 0-3 28.1 28.1 0 0 0 .1-3 23.1 23.1 0 0 0-.3-3.7c-.1-1.3-.4-2.5-.6-3.7s-.4-2.5-.5-3.7a25.6 25.6 0 0 1-.3-3.9c0-1.2 0-2.3.1-3.3a27 27 0 0 1 .4-2.8 25.6 25.6 0 0 1 .5-2.7c.2-1 .4-2 .6-3.2a.8.8 0 0 0 0-.7 2.3 2.3 0 0 1-.1-.7 6.2 6.2 0 0 0-1.9.2l-1.8.5-1.9.6-1.9.5-1.4.2-1 .2-1-.2h-2.9a44.7 44.7 0 0 1-5.2-.1h-7.6a4 4 0 0 0-2.3.8v5.2c0 1.7-.1 3.4-.2 5s-.2 3.4-.2 5.1-.2 3.4-.2 5.1v5.1c0 .5.7 1.1 1.1 1.6l1.4 1.7a9.4 9.4 0 0 1 1.2 1.8 3.7 3.7 0 0 1 .5 1.8v.2a7.8 7.8 0 0 1-4 .4c.1.5 0 .8-.3.8H114l-2.2-.2a3.8 3.8 0 0 1-1.8-.9 2.1 2.1 0 0 1-.8-1.8 6.9 6.9 0 0 1 .2-1.3l.3-1.3.3-1.3a5.7 5.7 0 0 0 .1-1.3 23 23 0 0 0-.2-3.8c-.2-1.2-.4-2.4-.7-3.6s-.5-2.6-.8-3.8a30.8 30.8 0 0 1-.7-3.9h-.4c-.3 0-.4.7-.5.9a2.5 2.5 0 0 0-.4.7l-.4.5c-.4.7-1 1.5-1.5 2.2s-1 1.5-1.4 2.3a12.8 12.8 0 0 0-1.1 2.4 7.7 7.7 0 0 0-.4 2.7 4.5 4.5 0 0 0 .3 1.6 10.1 10.1 0 0 0 .7 1.5l.7 1.1c.3.3.4.5.4.6a1 1 0 0 1-.4.7l-1.1.5-1.3.3h-2.5l-1.8-.2a1.5 1.5 0 0 1-1-.4 2.7 2.7 0 0 1-.7-.8 9.1 9.1 0 0 1-.6-1.6 7.5 7.5 0 0 0-.5-1.6 9.9 9.9 0 0 1-.2-1.7 3.4 3.4 0 0 1 .4-1.5 11.9 11.9 0 0 1 .9-1.5l1.1-1.6.8-1.4 2.4-5.9 2.4-5.8.5-.8a1.8 1.8 0 0 0 .5-.7l.5-.7a2.2 2.2 0 0 0 .1-.8c0-.4-.1-.6-.3-.7h-1.3l-8.9 2.5a2.7 2.7 0 0 1-1.3.5l-1.7.4a4.4 4.4 0 0 0-1.6.6 1.1 1.1 0 0 0-.7 1 1.2 1.2 0 0 0 .3.9l.6.7.9.5.7.6-.4.4-1.3-.8-1.4-.8a4.7 4.7 0 0 0-1.5-.6 4 4 0 0 0-1.5-.3 16.4 16.4 0 0 0-3.7.5l-3.9 1.2-4.1 1.1a20.1 20.1 0 0 1-4.2.5 17.7 17.7 0 0 1-3.4-.4 37 37 0 0 1-4.9-1.1l-5.3-1.7a39.1 39.1 0 0 1-5-2.3 15.2 15.2 0 0 1-3.6-2.6 4.3 4.3 0 0 1-1.5-3 4.1 4.1 0 0 1 1.2-3.2 5.3 5.3 0 0 1 2.7-1.6c1.1-.4 2.2-.1 3.4-.2s2.4.3 3.4.3h3.9a2.7 2.7 0 0 1 1.3-.2h2.3l2.5.4 2 .2a7 7 0 0 1 1.9.6l1.8.8a7.5 7.5 0 0 0 1.8.7 4.5 4.5 0 0 0 2 .4 8.9 8.9 0 0 0 3.9-1.1 30 30 0 0 0 4.1-2.5l3.9-3.1 3.2-2.7a9.4 9.4 0 0 1 1.8-1.2l1.9-1.1 1.7-1.3a8.6 8.6 0 0 0 1.5-1.7 46.4 46.4 0 0 0 2.6-4.4 28.2 28.2 0 0 1 2.6-4.4l1.3-1.3 1.6-1 1.6-.9a6.5 6.5 0 0 0 1.6-.9l3.6-2.6 3.4-2.9 3.3-3 3.4-2.8a17.9 17.9 0 0 1 3.8-2.2l3.9-1.8 2.4-1.3 2.5-1.3 2.5-1.1a13.8 13.8 0 0 1 2.7-.8l22.2-3.2a11.2 11.2 0 0 0 3.4-1.1 17.9 17.9 0 0 0 3.4-2.2 27 27 0 0 0 3.1-2.8l2.9-3.3 2.7-3.2 2.3-2.7 7.6-8.9.3-.3.6-.5.5-.6.3-.2 2-3.3h.2l.4-.3.4-.2.2-.2c.1 0 .2-.2.4-.4l.4-.4a12.5 12.5 0 0 0 1.2-1.7l1.4-1.9 1.3-2a9.5 9.5 0 0 0 .9-1.7 12.1 12.1 0 0 0 .9-2 17.2 17.2 0 0 1 .7-2.1c.2-.7.5-1.4.7-2.2s1-1.4 1-2.1v-6.1a4.8 4.8 0 0 0-1.1-3 9.2 9.2 0 0 0-2.6-2.6 10.6 10.6 0 0 0-3.3-1.8 8.1 8.1 0 0 0-3.2-.7 21.2 21.2 0 0 0-5.7.7 11.3 11.3 0 0 0-5.1 2.6 9.2 9.2 0 0 0-1.5 1.4l-1.6 1.8a16.3 16.3 0 0 1-1.7 2l-1.8 1.9-1.8 1.3a4.1 4.1 0 0 1-1.8.5 1.7 1.7 0 0 1-1.6-1.6v-.5a1 1 0 0 1 .1-.4c0-.3.1-.5.1-.8s.1-.5.2-.8v-.4a4.7 4.7 0 0 0-.2-1.7l-.6-1.3-.6-1.2a5 5 0 0 1-.2-1.2 1 1 0 0 0 .8-.3l.5-.6a3 3 0 0 1 .4-.8 1.8 1.8 0 0 1 .8-.6h2.8a1 1 0 0 0 .9-.4l.7-.6c.1-.1.2 0 .3 0h.1a.5.5 0 0 1 .2.4c.1.2.2.3.2.4a.8.8 0 0 1 .4-.4l.6-.3 1.1-.7 1.4-.8 1.3-.8 1.1-.6.6-.4a13.5 13.5 0 0 1 2.1-1.3 4.9 4.9 0 0 1 1.7-.6l1.9-.2h6.4l1.5.5 1.5.3 1.5.3 1.6.5a15.4 15.4 0 0 1 4.5 3 16.7 16.7 0 0 1 3.2 4.2 19.6 19.6 0 0 1 1.7 5 23.7 23.7 0 0 1 .4 5.4v.7a2.1 2.1 0 0 1 0 .8z"/></symbol><symbol id="micropachycephalosaurus" viewBox="0 0 256 256"><path d="M132.5 151.3c-.3 0-.4.2-.4.6h-.1c-.3 0-.5.1-.5.4s.2.6.5.6.4-.2.4-.6h.1c.3 0 .5-.1.5-.4s-.2-.6-.5-.6zm1.4-.8a3 3 0 0 0-.8.8h.3a1.9 1.9 0 0 0 1.1-.4 2.7 2.7 0 0 0 .8-.7h-.3zm3.1-2.6c-.3 0-.4.2-.4.6h-.2c-.3 0-.4.2-.4.5h-.1c-.3 0-.5.2-.5.6s.2.6.5.6.4-.2.4-.6h.1c.3 0 .5-.2.5-.6h.1a.5.5 0 0 0 .5-.5c0-.4-.2-.6-.5-.6zm23-5.8l-1.3 1.4c.3.5.5.9.8 1l1.2.2a2.1 2.1 0 0 0 1.3-.5 3.2 3.2 0 0 0 1.1-1.2l.8-1.4c.2-.6.3-1.2.4-1.2H161c-.2 0-.5 1.1-1 1.7z"/><path d="M128 2.3a126 126 0 1 0 126 126 126 126 0 0 0-126-126zm94.5 74.8l-1.6.4h-3.6a35.6 35.6 0 0 0-5.2 1.3 15 15 0 0 0-3.6 1.5 8.8 8.8 0 0 0-2.5 2.2 15.8 15.8 0 0 0-1.7 2.9 40.4 40.4 0 0 0-1.5 3.9c-.5 1.4-1 3.1-1.6 5l-1.2 3.5c-.4 1-.8 2.1-1.3 3.1a29.2 29.2 0 0 1-1.4 3.1c-.5 1.1-1.1 2.1-1.7 3.2a41.5 41.5 0 0 1-2.7 4.1l-2.9 3.6-3.1 3.5-3.1 3.8a11.1 11.1 0 0 0-1.3 2.7c-.3.9-.7 1.7-1 2.5a9.8 9.8 0 0 1-1.3 2.2 5.7 5.7 0 0 1-2.5 1.6l-1.3.5-2 .7-2 .6-1.4.4c.3 1 .4 1.6.2 2a2 2 0 0 1-.9.9l-1.2.6a1.8 1.8 0 0 0-.9 1l-2.2 6.7a3.1 3.1 0 0 1-1 1.5 9.8 9.8 0 0 1-1.8.8 12.3 12.3 0 0 1-2 .2 9.7 9.7 0 0 1-1.8-.1h-2c-.3-.1-.4-.3-.4-.8s0-.3.1-.4l.2-.3.3-.3c0-.1.1-.2.1-.4h-.1a20.6 20.6 0 0 0-3.4 1.6l-3.3 2-3.3 2.2a27.9 27.9 0 0 1-3.3 1.9l-.9.5-1.1.6-1 .7a1.6 1.6 0 0 0-.5 1.1c0 .1.1.2.1.3v.2c.6.5 1.1 1.1 1.8 1.6l1.9 1.8a14.9 14.9 0 0 0 2 1.5 12 12 0 0 0 2.1 1.3l1.8.7 1.9.5 1.9.6 1.6.9 1.4 1.4 1.1 1.5 1.1 1.5a6.1 6.1 0 0 0 1.5 1.2 3.4 3.4 0 0 0 1.6.6l2.1.7a5.9 5.9 0 0 1 1.7 1 1.9 1.9 0 0 1 .8 1.7.3.3 0 0 1-.1.2v.3l-5.6 1.1-1.1.4-1.1.2h-.6l-1.1-.6-1.7-1-1.7-1c-.5-.4-.9-.6-1-.8l-.2-.2-.3-.5-.4-.5-.2-.5-2.3-4.4-1.1-.5-1.8-.7-2.1-.9-2.1-1-1.8-.8-1.1-.6a16.4 16.4 0 0 1-2.8-1.6 17.1 17.1 0 0 1-2.6-2.1 18.9 18.9 0 0 1-2-2.7 8.1 8.1 0 0 1-1-3.1l-.5.3-.6.3-.9.6-1.7 1.2-2.1 1.4-2.1 1.4-1.7 1-1 .5-5.9 3.5a33.1 33.1 0 0 0-4.5 3.4 19.2 19.2 0 0 0-3.6 4.4c-.9 1.7-.7 3.9-2.4 6.6v.2c0 .1.1.3 0 .4v1a10.4 10.4 0 0 0 1.2 4.4 7.4 7.4 0 0 0 2.1 2.5 8.2 8.2 0 0 0 2.6 1.4 14.5 14.5 0 0 1 2.5 1 5.3 5.3 0 0 1 2 .9 6 6 0 0 1 .8 2h-13.2l-.2-.4-.4-.2h-.4l-.7-.3a3.3 3.3 0 0 1-1.2-1.6 10.8 10.8 0 0 1-.5-2.1c0-.8.2-1.5.2-2.3a19.6 19.6 0 0 0 .3-2v-1.5a8.6 8.6 0 0 1 .3-1.7c.2-.8.3-1.7.5-2.7s.5-2 .8-3.1.6-2.2.8-3.2.5-1.8.7-2.6.3-1.4.4-1.7a16.7 16.7 0 0 1 .6-2l1-1.9a14 14 0 0 0 4.5-2.6 24.2 24.2 0 0 0 3.2-3.2l2.9-3.4a14.5 14.5 0 0 1 3.4-3.1l1.4-.7 2.1-.8 2.3-.9 2.1-1.1 1.6-1.4a2 2 0 0 0 .6-1.5c0-.5-.1-.9-.1-1.3a1.7 1.7 0 0 0-.6-1.2l-.7-.3-1.2-.5-1.2-.6-.8-.3-2-1.2-2.6-1.9-2.5-1.5a3.4 3.4 0 0 0-1.7-.6h-7.9c-5.9 0-11.7-.1-17.5.1s-11.6.2-17.5.2c-4.3 0-8.6-.1-12.7-.4a98.5 98.5 0 0 1-12.3-1.3 93.9 93.9 0 0 1-11.9-2.9 73.5 73.5 0 0 1-11.7-5l-1.4-.7-1.6-1a5.3 5.3 0 0 1-1.3-1.3 2.4 2.4 0 0 1-.5-1.6 9.5 9.5 0 0 1 2.1.4l2.3.9 2.2 1 1.5.6 4.6 1.7 5 1.4 5.1 1 4.8.3H73l2.5-.3 3.3-.5 3.6-.6 3.4-.7 2.7-.5 6.8-1.4c2.4-.4 4.9-.9 7.3-1.5s4.8-1.3 7.2-2.1a65.4 65.4 0 0 0 6.6-2.8l3.8-1.8 3.7-1.6 3.9-1.3a25.9 25.9 0 0 1 4.2-.9h2.8l1.7-.2h1.1l1.8-.4 3.4-.7 4-.9 4-.9c1.2-.3 2.3-.9 3.3-1.1s1.5-.7 1.8-.7h6.5a66.3 66.3 0 0 1 7.9.7c2.6.2 5.1.5 7.8.5a10.1 10.1 0 0 0 5-1.3 17.8 17.8 0 0 0 4.5-3.4 48.8 48.8 0 0 0 3.8-4.9 54.5 54.5 0 0 0 3.2-5.7 45.5 45.5 0 0 0 2.6-5.5c.7-1.8 1.3-3.4 1.7-4.8a22.4 22.4 0 0 0 1.1-3.4c.4-1.1.7-2.1 1-3.1l1.2-2.6a8.6 8.6 0 0 1 1.8-2 6.6 6.6 0 0 1 2.6-1.5 10.1 10.1 0 0 1 3.7-.8h3.1c.7 1.6 1.7.9 2.9 1.3s2.4 1 3.6 1.5a11.9 11.9 0 0 1 2.9 1.8 2.9 2.9 0 0 1 1.3 2.2 2.4 2.4 0 0 1-.5 1.4z"/></symbol><symbol id="velociraptor" viewBox="0 0 256 256"><path d="M127.8 4.3a126 126 0 1 0 126 126 126 126 0 0 0-126-126zm109 115a28 28 0 0 1-4.1 0h-3.2c-3 0-6.1-.2-9.1-.5l-9-.9-9-1a91 91 0 0 0-9.1-.4 146.1 146.1 0 0 0-16.1.9 74.8 74.8 0 0 0-15.7 3.7L131.2 132a2.4 2.4 0 0 0-1.2 1.6 17.3 17.3 0 0 0-.8 2.7l-.6 2.8a9.8 9.8 0 0 1-.6 2 3.6 3.6 0 0 0 1.4 1.3 13.8 13.8 0 0 0 2.4 1.1l2.8 1.2 2.8 1.4a9.1 9.1 0 0 1 2 1.9 3.5 3.5 0 0 1 .8 2.4 1.6 1.6 0 0 1-.4 1.2l-1.2.9-1.6.7-1.6.8a4 4 0 0 0-1.2 1 2.5 2.5 0 0 0-.5 1.5 3.7 3.7 0 0 0 .8 2.5 6 6 0 0 0 1.9 1.6 17.1 17.1 0 0 0 2.3 1.3 7.6 7.6 0 0 1 2.2 1.7 20.1 20.1 0 0 1 2 3.4 26.5 26.5 0 0 1 1.2 3.7 23.3 23.3 0 0 1 .8 3.8c.2 1.3.1 2.6.3 3.9l1.3 1.3v7.1h.8l1 .2 1 .2.5.2a4.4 4.4 0 0 1 .1.9 3.4 3.4 0 0 1-.1.9l-.3 1.3a3.1 3.1 0 0 1-.7.9.8.8 0 0 1-.8.3h-5.2c-.2 0-.5-.5-1-.8l-1.4-.9-1.6-.7c-.5-.4-.9-.9-1.1-.9h-6.1a4.8 4.8 0 0 1 .6-2.9 4.9 4.9 0 0 1 1.6-1.6 8.3 8.3 0 0 1 2.1-.6l2.1-.4a4.3 4.3 0 0 0 1.7-.6 1.4 1.4 0 0 0 .6-1.3v-.3a.4.4 0 0 0-.1-.3 11.2 11.2 0 0 0-.8-1.8c-.4-.7-.8-1.6-1.3-2.4a12 12 0 0 0-1.5-2.4 7.1 7.1 0 0 0-1.5-1.8l-1.3-.8-1.8-1a7.7 7.7 0 0 1-1.8-1 2.2 2.2 0 0 1-.9-1.1 16.3 16.3 0 0 1-1-2.9 17 17 0 0 0-1-3.2 9 9 0 0 0-1.7-2.6 4.4 4.4 0 0 0-2.9-1 24.7 24.7 0 0 0-6 .8 25.7 25.7 0 0 0-10.6 5.7 21.1 21.1 0 0 0-3.9 4.5l-.3.2h-.3c-.1 0-.1-.2-.2-.3a6.4 6.4 0 0 1-.2-.7c0-.2-.1-.4-.1-.6s-.1-.3-.2-.3h-.3a1.4 1.4 0 0 0-1 .5 6.2 6.2 0 0 0-.9 1.2l-.8 1.3-.8 1a5.6 5.6 0 0 1-.7-1.7c0-.4-.1-1-.1-1.6a13.5 13.5 0 0 1 .4-2.9l.9-2.7a13.4 13.4 0 0 0 .9-2.6 14.1 14.1 0 0 0 .4-2.7h-4.8c0-1.7.2-1.8.6-2.4a7.5 7.5 0 0 1 1.6-1.5 6.4 6.4 0 0 1 2.1-.9l2.1-.3a15.1 15.1 0 0 1 3 .2l2.9.4 2.9.5 2.9.2h2.3a2.5 2.5 0 0 0-1.7-1.3l-2.5-.5-2.7-.2c-.9 0-1.6.2-2.1-.2l-3.9-2.1h-.3a16.3 16.3 0 0 0-3.1-.1 10.8 10.8 0 0 1-3.1.2 7.3 7.3 0 0 1-3-.7l-2.6-1.8-2.6-1.3a5.5 5.5 0 0 0-2.9-.6v6l1.6-.2 1-.3.9-.5c.3-.2.3-.4.8-.6l.6-.2v2.7l2-.6c0 .1.2.2.2.5s.2.3.2.5a6 6 0 0 1-1.3 3.8 19 19 0 0 1-3.3 2.9 25.4 25.4 0 0 0-4.5-1.3l-4.8-.6v-7.7l-1.7.5-2 1a6.8 6.8 0 0 0-1.9 1.1c-.5.5-.9.9-.9 1.2v6.9a9.3 9.3 0 0 0 2.9-.3l1.8-.6 1.2-.6 1.2-.3h.4l.3.7c.1.4.3.8.4 1.2a9.3 9.3 0 0 1 .4 1.3 5.8 5.8 0 0 1 .2 1 4.6 4.6 0 0 1-.4 1.9 6.2 6.2 0 0 1-1.1 1.7 5 5 0 0 1-1.5 1.4 4.1 4.1 0 0 1-1.8.5h-1l-3-.5a22.9 22.9 0 0 1-3.6-.7 11.9 11.9 0 0 1-3.2-1.2 2.5 2.5 0 0 1-1.5-2.1V152l.9-.8a20.2 20.2 0 0 0 1.9-1.6l2.3-2.1a19.5 19.5 0 0 0 2.4-2.6 15.1 15.1 0 0 0 1.8-2.6 5 5 0 0 0 .7-2.5 4.1 4.1 0 0 0-1.1-2.8 11.8 11.8 0 0 0-2.8-2 22.2 22.2 0 0 0-3.2-1.4l-2.5-.9-1.3-9c-.2-.8-.4-1.7-.7-2.7a8.1 8.1 0 0 0-1.1-2.7 5.1 5.1 0 0 0-1.7-2.1 3.9 3.9 0 0 0-2.6-.9 9.8 9.8 0 0 0-3.6.5 17.3 17.3 0 0 0-3.2 1.4l-1.7 1.1-2.5 1.4-2.9 1.8-3 1.7c-.9.5-1.7 1.2-2.5 1.6s-1.3 1.2-1.6 1.2h-1l-1.7-.3-2.1-.3a4.1 4.1 0 0 1-1.3-.8c-.5-.3-.4-.8-.4-1.4v-1.8c0-.6-.2-.9.1-.9h1.5v-.5c.1-.2.1-.5.2-.8s.1-.6.2-.8v-.5a3.6 3.6 0 0 0-.8-.9l-.9-.5a1.3 1.3 0 0 1-.7-.6 2.1 2.1 0 0 1-.3-1.2 2.7 2.7 0 0 1 .3-1.2 3.7 3.7 0 0 1 .7-1.2c.2-.3.2-.6.6-.8l.8-.4v.8c0 .5.4 1 .5 1.5a1.2 1.2 0 0 0 1.2.7 1.4 1.4 0 0 0 1.1-.5 5.2 5.2 0 0 0 1-1.1c.2-.4.4-1.2.6-1.6s.2.3.2-1.4H22.3a1.5 1.5 0 0 1-.8-.5l-1.1-.6-.9-.8a1.8 1.8 0 0 1-.4-1 4.6 4.6 0 0 1 1.1-3.2 10 10 0 0 1 2.6-1.8l3.1-1a17.1 17.1 0 0 0 2.9-.8l2.2-.9 3.3-1.5 3.3-1.6a10.7 10.7 0 0 1 2.2-1.1h13.5a7 7 0 0 1 3.8 1 14.8 14.8 0 0 1 3.1 2.5 28.5 28.5 0 0 1 2.5 3.3l2.3 3.3a18.6 18.6 0 0 0 2.2 2.5 3.9 3.9 0 0 0 2.5 1 .7.7 0 0 0 .7-.4 1 1 0 0 1 .9-.4 4 4 0 0 1 1.5.3l1.5.7 1.5.7a4 4 0 0 0 1.5.3l4.1-.2 4.1-.4 4.1-.5a26.8 26.8 0 0 1 4-.2 56.4 56.4 0 0 1 7.3.4 37.5 37.5 0 0 1 7.1 1.5 52.1 52.1 0 0 1 5 2l5.1 2.1a45.6 45.6 0 0 0 5.2 1.8 19 19 0 0 0 5.4.7h2.5c4.3-1 8.5-1.9 12.8-2.7s8.5-1.6 12.7-2.3 8.5-1.1 12.8-1.5 8.6-.6 13-.6h8.7a32.9 32.9 0 0 1 5.1 1l36 7.1h11.6c-.8 0-1.8 1-3.1 1.4a26.1 26.1 0 0 1-4 .2z"/></symbol></svg>